<svg xmlns="http://www.w3.org/2000/svg" viewBox="0 0 100 100">
  <rect x="5" y="5" width="90" height="90" rx="16" fill="#f4f1fb" stroke="#2f2a6b" stroke-width="2.5"/>
  <g fill="#d9cff0">
    <rect x="15" y="15" width="15" height="15" rx="3"/><rect x="34" y="15" width="15" height="15" rx="3"/><rect x="53" y="15" width="15" height="15" rx="3"/><rect x="72" y="15" width="15" height="15" rx="3"/>
    <rect x="15" y="34" width="15" height="15" rx="3"/><rect x="34" y="34" width="15" height="15" rx="3"/><rect x="72" y="34" width="15" height="15" rx="3"/>
    <rect x="15" y="53" width="15" height="15" rx="3"/><rect x="34" y="53" width="15" height="15" rx="3"/><rect x="53" y="53" width="15" height="15" rx="3"/><rect x="72" y="53" width="15" height="15" rx="3"/>
    <rect x="15" y="72" width="15" height="15" rx="3"/><rect x="34" y="72" width="15" height="15" rx="3"/><rect x="53" y="72" width="15" height="15" rx="3"/><rect x="72" y="72" width="15" height="15" rx="3"/>
  </g>
  <g fill="#2f6fd0"><rect x="15" y="34" width="15" height="15" rx="3"/><rect x="34" y="34" width="15" height="15" rx="3"/><rect x="72" y="34" width="15" height="15" rx="3"/></g>
  <g fill="#6d4bc4"><rect x="53" y="15" width="15" height="15" rx="3"/><rect x="53" y="53" width="15" height="15" rx="3"/><rect x="53" y="72" width="15" height="15" rx="3"/></g>
  <rect x="53" y="34" width="15" height="15" rx="3" fill="#f59e0b"/>
</svg>
